<svg width="24" height="24" viewBox="0 0 24 24" fill="none" xmlns="http://www.w3.org/2000/svg">
<path d="M8.66667 22V2V22ZM7.33333 22H16.6667C18.5333 22 19.4667 22 20.18 21.6367C20.8072 21.3171 21.3171 20.8072 21.6367 20.18C22 19.4667 22 18.5333 22 16.6667V7.33333C22 5.46667 22 4.53333 21.6367 3.82C21.3171 3.19282 20.8072 2.68291 20.18 2.36333C19.4667 2 18.5333 2 16.6667 2H7.33333C5.46667 2 4.53333 2 3.82 2.36333C3.19282 2.68291 2.68291 3.19282 2.36333 3.82C2 4.53333 2 5.46667 2 7.33333V16.6667C2 18.5333 2 19.4667 2.36333 20.18C2.68291 20.8072 3.19282 21.3171 3.82 21.6367C4.53333 22 5.46667 22 7.33333 22Z" fill="white"/>
<path d="M8.66667 22V2M7.33333 22H16.6667C18.5333 22 19.4667 22 20.18 21.6367C20.8072 21.3171 21.3171 20.8072 21.6367 20.18C22 19.4667 22 18.5333 22 16.6667V7.33333C22 5.46667 22 4.53334 21.6367 3.82C21.3171 3.19282 20.8072 2.68291 20.18 2.36334C19.4667 2 18.5333 2 16.6667 2H7.33333C5.46667 2 4.53333 2 3.82 2.36334C3.19282 2.68291 2.68291 3.19282 2.36333 3.82C2 4.53334 2 5.46667 2 7.33333V16.6667C2 18.5333 2 19.4667 2.36333 20.18C2.68291 20.8072 3.19282 21.3171 3.82 21.6367C4.53333 22 5.46667 22 7.33333 22Z" stroke="#1E1E1E" stroke-width="1.5" stroke-linecap="round" stroke-linejoin="round"/>
</svg>
