<svg width="36" height="36" viewBox="0 0 36 36" fill="none" xmlns="http://www.w3.org/2000/svg">
<path d="M14.6667 8V28M13.3333 8H22.6667C24.5333 8 25.4667 8 26.18 8.36333C26.8072 8.68291 27.3171 9.19282 27.6367 9.82C28 10.5333 28 11.4667 28 13.3333V22.6667C28 24.5333 28 25.4667 27.6367 26.18C27.3171 26.8072 26.8072 27.3171 26.18 27.6367C25.4667 28 24.5333 28 22.6667 28H13.3333C11.4667 28 10.5333 28 9.82 27.6367C9.19282 27.3171 8.68291 26.8072 8.36333 26.18C8 25.4667 8 24.5333 8 22.6667V13.3333C8 11.4667 8 10.5333 8.36333 9.82C8.68291 9.19282 9.19282 8.68291 9.82 8.36333C10.5333 8 11.4667 8 13.3333 8Z" stroke="white" stroke-width="1.5" stroke-linecap="round" stroke-linejoin="round"/>
</svg>
