<svg width="24" height="24" viewBox="0 0 24 24" fill="none" xmlns="http://www.w3.org/2000/svg">
<path d="M19.4151 5.29009C15.7096 1.19457 9.38561 0.878348 5.29009 4.58379C1.19457 8.2893 0.878348 14.6133 4.58379 18.7088L2.14629 21.1463C2.05254 21.24 1.99987 21.3672 1.99987 21.4997C1.99981 21.7759 2.22368 21.9997 2.49981 21.9998H11.9998C14.4792 21.9997 16.8702 21.0785 18.7088 19.4151C22.8044 15.7096 23.1205 9.38561 19.4151 5.29009ZM11.9998 20.9998H3.70678L5.63555 19.0711C5.63555 19.0712 5.63561 19.071 5.63555 19.0711C5.83074 18.8758 5.8308 18.5592 5.63555 18.3641C3.94817 16.6767 3.00005 14.3882 2.99981 12.0018C2.99926 7.03179 7.02776 3.00237 11.9978 3.00182C16.9678 3.00127 20.9972 7.02978 20.9978 11.9998C20.9983 16.9698 16.9698 20.9993 11.9998 20.9998Z" fill="white"/>
</svg>
