<svg width="24" height="24" viewBox="0 0 24 24" fill="none" xmlns="http://www.w3.org/2000/svg">
<g clip-path="url(#clip0_288_4281)">
<path d="M7.19995 1.19995V4.79995C7.19995 5.43647 6.9471 6.04692 6.49701 6.49701C6.04692 6.9471 5.43647 7.19995 4.79995 7.19995H1.19995M22.8 7.19995H19.2C18.5634 7.19995 17.953 6.9471 17.5029 6.49701C17.0528 6.04692 16.8 5.43647 16.8 4.79995V1.19995M16.8 22.8V19.2C16.8 18.5634 17.0528 17.953 17.5029 17.5029C17.953 17.0528 18.5634 16.8 19.2 16.8H22.8M1.19995 16.8H4.79995C5.43647 16.8 6.04692 17.0528 6.49701 17.5029C6.9471 17.953 7.19995 18.5634 7.19995 19.2V22.8" stroke="white" stroke-width="2" stroke-linecap="round" stroke-linejoin="round"/>
</g>
<defs>
<clipPath id="clip0_288_4281">
<rect width="24" height="24" fill="white"/>
</clipPath>
</defs>
</svg>
