<svg width="16" height="16" viewBox="0 0 16 16" fill="none" xmlns="http://www.w3.org/2000/svg">
  <path d="M6 2C6 1.44772 6.44772 1 7 1H9C9.55228 1 10 1.44772 10 2V3H12.5C12.7761 3 13 3.22386 13 3.5C13 3.77614 12.7761 4 12.5 4H3.5C3.22386 4 3 3.77614 3 3.5C3 3.22386 3.22386 4 3.5 4H6V2Z" fill="#d05e5e"/>
  <path d="M4 5H12V12C12 13.1046 11.1046 14 10 14H6C4.89543 14 4 13.1046 4 12V5Z" stroke="#d05e5e" stroke-width="1.2" fill="none"/>
  <path d="M6.5 7V11.5M9.5 7V11.5" stroke="#d05e5e" stroke-width="1.2" stroke-linecap="round"/>
</svg>